<?xml version="1.0" encoding="UTF-8"?>
<svg width="46px" height="46px" viewBox="0 0 46 46" version="1.1" xmlns="http://www.w3.org/2000/svg" xmlns:xlink="http://www.w3.org/1999/xlink">
    <!-- Generator: Sketch 63 (92445) - https://sketch.com -->
    <title>GC_EYWF_GUAN_BI</title>
    <desc>Created with Sketch.</desc>
    <g id="页面-1" stroke="none" stroke-width="1" fill="none" fill-rule="evenodd">
        <g id="20200908生日祝福PC1920*1080备份-5" transform="translate(-1292.000000, -258.000000)" fill="#FFFFFF" fill-rule="nonzero">
            <g id="GC_EYWF_GUAN_BI" transform="translate(1292.000000, 258.000000)">
                <path d="M23,46 C10.2974508,46 0,35.7025492 0,23 C0,10.2974508 10.2974508,5.10702591e-15 23,5.10702591e-15 C35.7025492,5.10702591e-15 46,10.2974508 46,23 C46,35.7025492 35.7025492,46 23,46 Z M23,2.19157144 C11.5361428,2.19157144 2.19157144,11.5328572 2.19157144,23 C2.19157144,34.4638572 11.5361429,43.8084286 23,43.8084286 C34.4638572,43.8084286 43.8084286,34.4638571 43.8084286,23 C43.8084286,11.5361428 34.4671428,2.19157144 23,2.19157144 Z M24.679,23 L33.5865714,14.0924286 C34.0268572,13.6554286 34.0268572,12.9227143 33.5865714,12.4134286 L33.5142857,12.3411428 C33.0682333,11.9032213 32.3536239,11.9032213 31.9075714,12.3411428 L23,21.321 L14.0924286,12.4134286 C13.6463761,11.9755071 12.9317667,11.9755071 12.4857143,12.4134286 L12.4134286,12.4857143 C11.9731428,12.9227143 11.9731428,13.6554286 12.4134286,14.1647143 L21.3177143,23 L12.4134286,31.9075714 C11.9731428,32.3445714 11.9731428,33.0772857 12.4134286,33.5865714 L12.4857143,33.6588572 C12.9317667,34.0967787 13.6463761,34.0967787 14.0924286,33.6588572 L23,24.679 L31.9075714,33.5865714 C32.3536239,34.0244929 33.0682333,34.0244929 33.5142857,33.5865714 L33.5865714,33.5142857 C34.0268572,33.0772857 34.0268572,32.3445714 33.5865714,31.8352857 L24.6822857,23 L24.679,23 Z" id="形状"></path>
            </g>
        </g>
    </g>
</svg>