<?xml version="1.0" encoding="UTF-8"?>
<svg width="50px" height="50px" viewBox="0 0 50 50" version="1.1" xmlns="http://www.w3.org/2000/svg" xmlns:xlink="http://www.w3.org/1999/xlink">
    <!-- Generator: Sketch 63 (92445) - https://sketch.com -->
    <title>GC_EYWF_BlOOD_DONATION</title>
    <desc>Created with Sketch.</desc>
    <defs>
        <linearGradient x1="29.4830715%" y1="0%" x2="61.5574634%" y2="100%" id="linearGradient-1">
            <stop stop-color="#FFCAAC" offset="0%"></stop>
            <stop stop-color="#FFA26D" offset="100%"></stop>
        </linearGradient>
    </defs>
    <g id="页面-1" stroke="none" stroke-width="1" fill="none" fill-rule="evenodd">
        <g id="弹性福利PC1920*1080，新增12个图标排在里面" transform="translate(-1249.000000, -498.000000)">
            <g id="GC_EYWF_BlOOD_DONATION" transform="translate(1249.500000, 498.000000)">
                <g id="编组-7" fill="url(#linearGradient-1)">
                    <ellipse id="GC_EYWF_ELLIPSE备份-6" cx="24.7235059" cy="24.9192432" rx="24.7235059" ry="24.9192432"></ellipse>
                </g>
                <g id="SVG-fenhuaban_shixinxiedi" transform="translate(16.000000, 13.000000)" fill="#FFFFFF" fill-rule="nonzero">
                    <path d="M10.181174,0.494690825 C9.50621744,-0.164896942 8.43753619,-0.164896942 7.7625796,0.494690825 C5.34398516,2.83322924 0.000578889719,8.46970643 0.000578889719,14.1661462 C-0.0556674835,19.5627733 3.99407202,23.9400375 9,24 C14.005928,23.9400375 18.0556675,19.5627733 17.9994211,14.1661462 C17.9994211,8.46970643 12.6560148,2.83322924 10.181174,0.494690825 Z M3.60034733,18.0637102 C3.37536181,18.0637102 3.20662266,17.9437851 3.09412989,17.7638976 C1.8567095,15.4853217 2.47541968,12.8469707 3.15037626,10.7482823 C3.26286904,10.4484697 3.54410093,10.2685821 3.88157925,10.3885072 C4.16281117,10.5084322 4.33155031,10.8082448 4.21905754,11.16802 C3.60034733,13.0868207 3.09412989,15.3054341 4.05031839,17.1642723 C4.21905754,17.464085 4.10656477,17.8238601 3.88157925,18.0037476 C3.76908647,18.0637102 3.7128401,18.1236727 3.60034733,18.0637102 L3.60034733,18.0637102 Z M6.58140558,21.1217989 C6.46891281,21.361649 6.30017366,21.481574 6.07518814,21.481574 C6.01894177,21.481574 5.906449,21.481574 5.8502026,21.4216115 C5.11899964,21.0618363 4.50028943,20.4022486 4.10656477,19.6826983 C3.93782562,19.3828857 4.05031839,19.0231105 4.33155029,18.843223 C4.6127822,18.6633354 4.9502605,18.7832605 5.11899964,19.0830731 C5.40023156,19.5627733 5.8502026,19.9825109 6.35642004,20.2823235 C6.58140556,20.4622111 6.69389833,20.7620237 6.58140558,21.1217989 L6.58140558,21.1217989 Z" id="形状"></path>
                </g>
            </g>
        </g>
    </g>
</svg>