<?xml version="1.0" encoding="UTF-8"?>
<svg width="50px" height="50px" viewBox="0 0 50 50" version="1.1" xmlns="http://www.w3.org/2000/svg" xmlns:xlink="http://www.w3.org/1999/xlink">
    <!-- Generator: Sketch 63 (92445) - https://sketch.com -->
    <title>GC_EYWF_TRA_GD</title>
    <desc>Created with Sketch.</desc>
    <defs>
        <linearGradient x1="29.4830715%" y1="0%" x2="61.5574634%" y2="100%" id="linearGradient-1">
            <stop stop-color="#FFCAAC" offset="0%"></stop>
            <stop stop-color="#FFA26D" offset="100%"></stop>
        </linearGradient>
    </defs>
    <g id="页面-1" stroke="none" stroke-width="1" fill="none" fill-rule="evenodd">
        <g id="弹性福利PC1920*1080，新增12个图标排在里面" transform="translate(-1600.000000, -500.000000)">
            <g id="GC_EYWF_TRA_GD" transform="translate(1600.000000, 500.000000)">
                <g id="编组-7备份" fill="url(#linearGradient-1)">
                    <ellipse id="GC_EYWF_ELLIPSE备份-6" cx="24.7235059" cy="24.9192432" rx="24.7235059" ry="24.9192432"></ellipse>
                </g>
                <g id="car_hy" transform="translate(8.000000, 18.000000)" fill="#FFFFFF" fill-rule="nonzero">
                    <path d="M25.1173445,7.27673151 C23.1973404,7.27673151 21.6414259,8.78134926 21.6414259,10.6378228 C21.6414259,12.4942963 23.1979092,13.998914 25.1173445,13.998914 C27.0367797,13.998914 28.593263,12.4942963 28.593263,10.6378228 C28.593263,8.78134926 27.0373486,7.27673151 25.1173445,7.27673151 Z M25.1173445,12.505156 C24.0506755,12.505156 23.1865314,11.6689556 23.1865314,10.6378228 C23.1865314,9.60668992 24.0512444,8.77048951 25.1173445,8.77048951 C26.1840134,8.77048951 27.0481578,9.60668992 27.0481578,10.6378228 C27.0487264,11.6694986 26.1840134,12.505156 25.1173445,12.505156 Z M12.3719305,11.7585485 L20.8688731,11.7585485 L20.8688731,10.2647905 L12.3719305,10.2647905 L12.3719305,11.7585485 Z M28.593263,4.2892155 C28.593263,4.2892155 20.8688731,-2.86029801 6.96463003,1.30169949 C6.96463003,1.30169949 6.49927792,1.43093046 5.84846764,1.71599878 L4.64754062,0.55454899 L4.64754062,2.33554727 C4.11904171,2.6542808 3.57518277,3.05283346 3.10243509,3.542065 C3.10243509,3.542065 0.0127929183,3.328671 0.0127929183,6.530124 L0.0127929183,8.7710325 C0.0127929183,8.7710325 -0.428665805,11.865517 3.87498786,11.7590915 L3.87498786,10.2653335 L4.67029623,10.2653335 C4.65607398,10.3880486 4.64754062,10.5123927 4.64754062,10.6389087 C4.64754062,12.4953822 6.20402396,14 8.12345918,14 C10.0428944,14 11.5993777,12.4953822 11.5993777,10.6389087 C11.5993777,8.78243523 10.0428944,7.27781748 8.12345918,7.27781748 C6.33429979,7.27781748 4.86258108,8.58533085 4.67029623,10.2653335 C1.52376504,10.1969171 1.57951627,9.19401959 1.57951627,9.19401959 L1.57951627,6.62297482 C1.57951627,4.57699876 3.6138673,4.93754231 3.6138673,4.93754231 C5.01731919,3.63437284 7.89476536,2.36649754 7.89476536,2.36649754 C20.5258324,-1.02120009 28.5926941,5.78405948 28.5926941,5.78405948 C30.79373,5.8302134 32.4548891,7.83926633 32.4548891,7.83926633 L32.4548891,9.66370359 C32.3547644,10.5167366 29.3652469,10.2658765 29.3652469,10.2658765 L29.3652469,11.7596345 L31.6823363,11.7596345 C31.6823363,11.7596345 33.8896299,12.6132105 34,10.2658765 L34,8.02496798 C34.0005635,8.023882 33.7798341,5.5695795 28.593263,4.2892155 L28.593263,4.2892155 Z M8.12345918,8.77048951 C9.19012813,8.77048951 10.0542722,9.60668992 10.0542722,10.6378228 C10.0542722,11.6689556 9.18955924,12.505156 8.12345918,12.505156 C7.05679023,12.505156 6.19264616,11.6689556 6.19264616,10.6378228 C6.19264616,9.60668992 7.05735912,8.77048951 8.12345918,8.77048951 Z" id="形状"></path>
                </g>
            </g>
        </g>
    </g>
</svg>