<?xml version="1.0" encoding="UTF-8"?>
<svg width="50px" height="50px" viewBox="0 0 50 50" version="1.1" xmlns="http://www.w3.org/2000/svg" xmlns:xlink="http://www.w3.org/1999/xlink">
    <!-- Generator: Sketch 63 (92445) - https://sketch.com -->
    <title>GC_EYWF_H_CHECK</title>
    <desc>Created with Sketch.</desc>
    <defs>
        <linearGradient x1="29.4830715%" y1="0%" x2="61.4965112%" y2="99.8099662%" id="linearGradient-1">
            <stop stop-color="#FFE5A6" offset="0%"></stop>
            <stop stop-color="#FBD77D" offset="100%"></stop>
        </linearGradient>
    </defs>
    <g id="页面-1" stroke="none" stroke-width="1" fill="none" fill-rule="evenodd">
        <g id="弹性福利PC1920*1080，新增12个图标排在里面" transform="translate(-1484.000000, -606.000000)">
            <g id="GC_EYWF_H_CHECK" transform="translate(1484.000000, 606.000000)">
                <g fill="url(#linearGradient-1)" id="编组-11备份">
                    <g>
                        <ellipse id="GC_EYWF_ELLIPSE备份-11" cx="24.7235059" cy="24.9192432" rx="24.7235059" ry="24.9192432"></ellipse>
                    </g>
                </g>
                <g id="yiyuan-2" transform="translate(12.500000, 12.500000)" fill="#FFFFFF" fill-rule="nonzero">
                    <path d="M23.1267756,23.4626116 L23.1267756,15.3320313 C23.1267756,13.9174107 21.9809792,12.765067 20.5743963,12.765067 L20.2914151,12.765067 L20.2914151,8.02455357 C20.2914151,6.60993304 19.1456188,5.45758929 17.7390359,5.45758929 L12.9616477,5.45758929 L12.9616477,3.60770089 L15.5195756,3.60770089 L15.5195756,2.19029018 L12.9616477,2.19029018 L12.9616477,0.00837053571 L11.5522905,0.00837053571 L11.5522905,2.19029018 L8.96939364,2.19029018 L8.96939364,3.60770089 L11.5522905,3.60770089 L11.5522905,5.45758929 L7.22434304,5.45758929 C5.81776012,5.45758929 4.67196378,6.60993304 4.67196378,8.02455357 L4.67196378,12.765067 L4.34459339,12.765067 C2.93801048,12.765067 1.79221413,13.9174107 1.79221413,15.3320313 L1.79221413,23.4626116 L0.0138716264,23.4626116 L0.0138716264,24.8800223 L24.8995694,24.8800223 L24.8995694,23.4626116 L23.1267756,23.4626116 Z M3.20157138,23.4626116 L3.20157138,15.3320313 C3.20157138,14.6986607 3.71482156,14.1824777 4.34459339,14.1824777 L4.67196378,14.1824777 L4.67196378,23.4626116 L3.20157138,23.4626116 Z M6.0785467,23.4626116 L6.0785467,8.02455357 C6.0785467,7.39118304 6.59179687,6.875 7.22156871,6.875 L17.7390359,6.875 C18.3688077,6.875 18.8820579,7.39118304 18.8820579,8.02455357 L18.8820579,23.4626116 L6.0785467,23.4626116 Z M20.2914151,23.4626116 L20.2914151,14.1824777 L20.5743963,14.1824777 C21.2041681,14.1824777 21.7174183,14.6986607 21.7174183,15.3320313 L21.7174183,23.4626116 L20.2914151,23.4626116 L20.2914151,23.4626116 Z" id="形状"></path>
                    <path d="M7.78198242,8.63002232 L9.80446555,8.63002232 L9.80446555,10.6640625 L7.78198242,10.6640625 L7.78198242,8.63002232 L7.78198242,8.63002232 Z M11.4440918,8.63002232 L13.4693493,8.63002232 L13.4693493,10.6640625 L11.4440918,10.6640625 L11.4440918,8.63002232 L11.4440918,8.63002232 Z M15.0867809,8.63002232 L17.1120384,8.63002232 L17.1120384,10.6640625 L15.0867809,10.6640625 L15.0867809,8.63002232 L15.0867809,8.63002232 Z M7.78198242,12.2991071 L9.80446555,12.2991071 L9.80446555,14.3331473 L7.78198242,14.3331473 L7.78198242,12.2991071 L7.78198242,12.2991071 Z M11.4440918,12.2991071 L13.4693493,12.2991071 L13.4693493,14.3331473 L11.4440918,14.3331473 L11.4440918,12.2991071 L11.4440918,12.2991071 Z M15.0867809,12.2991071 L17.1120384,12.2991071 L17.1120384,14.3331473 L15.0867809,14.3331473 L15.0867809,12.2991071 L15.0867809,12.2991071 Z M7.78198242,16.0044643 L9.80446555,16.0044643 L9.80446555,18.0385045 L7.78198242,18.0385045 L7.78198242,16.0044643 Z M11.4440918,16.0044643 L13.4693493,16.0044643 L13.4693493,18.0385045 L11.4440918,18.0385045 L11.4440918,16.0044643 Z M15.0867809,16.0044643 L17.1120384,16.0044643 L17.1120384,18.0385045 L15.0867809,18.0385045 L15.0867809,16.0044643 Z" id="形状"></path>
                </g>
            </g>
        </g>
    </g>
</svg>