<?xml version="1.0" encoding="UTF-8"?>
<svg width="50px" height="50px" viewBox="0 0 50 50" version="1.1" xmlns="http://www.w3.org/2000/svg" xmlns:xlink="http://www.w3.org/1999/xlink">
    <!-- Generator: Sketch 63 (92445) - https://sketch.com -->
    <title>GC_EYWF_WEDDING_GD</title>
    <desc>Created with Sketch.</desc>
    <defs>
        <linearGradient x1="29.4830715%" y1="0%" x2="61.5574634%" y2="100%" id="linearGradient-1">
            <stop stop-color="#FFAFAF" offset="0%"></stop>
            <stop stop-color="#FF5454" offset="100%"></stop>
        </linearGradient>
    </defs>
    <g id="页面-1" stroke="none" stroke-width="1" fill="none" fill-rule="evenodd">
        <g id="弹性福利PC1920*1080，新增12个图标排在里面" transform="translate(-1134.000000, -498.000000)">
            <g id="GC_EYWF_WEDDING_GD" transform="translate(1134.000000, 498.000000)">
                <g id="编组-6" fill="url(#linearGradient-1)">
                    <ellipse id="GC_EYWF_ELLIPSE备份-5" cx="24.7235059" cy="24.9192432" rx="24.7235059" ry="24.9192432"></ellipse>
                </g>
                <g id="编组" transform="translate(15.000000, 13.000000)" fill="#FFFFFF" fill-rule="nonzero">
                    <path d="M10.0023058,24 C5.44429455,23.9490159 1.48517517,21.0812903 0.330857853,16.9946395 C-0.823459467,12.9079888 1.1117412,8.61039778 5.05822038,6.49636364 L7.38900352,8.67818182 C4.34853441,9.83407772 2.61487098,12.8214956 3.25051863,15.8095451 C3.88616628,18.7975946 6.71358869,20.9517138 9.99995149,20.9517138 C13.2863143,20.9517138 16.1137367,18.7975946 16.7493844,15.8095451 C17.385032,12.8214956 15.6513686,9.83407772 12.6108995,8.67818182 L14.9416826,6.49636364 C18.8874643,8.60996957 20.8228182,12.9064228 19.6697411,16.9925743 C18.516664,21.0787259 14.5594566,23.9471017 10.0023058,24 Z M3.74862631,3.40581818 L5.53556005,0.851454538 C5.79394739,0.45 6.00995683,0 6.42902692,0 L13.5755847,0 C14.039387,0 14.251865,0.457636372 14.4690516,0.851454538 L16.2559853,3.40581818 L10.0023058,9.36599999 L3.74862631,3.40581818 Z" id="形状"></path>
                </g>
            </g>
        </g>
    </g>
</svg>