<?xml version="1.0" encoding="UTF-8"?>
<svg width="50px" height="50px" viewBox="0 0 50 50" version="1.1" xmlns="http://www.w3.org/2000/svg" xmlns:xlink="http://www.w3.org/1999/xlink">
    <!-- Generator: Sketch 63 (92445) - https://sketch.com -->
    <title>员工子女营养关怀补贴</title>
    <desc>Created with Sketch.</desc>
    <defs>
        <linearGradient x1="29.4830715%" y1="0%" x2="61.4965112%" y2="99.8099662%" id="linearGradient-1">
            <stop stop-color="#F9CBB1" offset="0%"></stop>
            <stop stop-color="#FDB085" offset="65.1926833%"></stop>
            <stop stop-color="#FFA26D" offset="100%"></stop>
        </linearGradient>
    </defs>
    <g id="页面-1" stroke="none" stroke-width="1" fill="none" fill-rule="evenodd">
        <g id="弹性福利PC1920*1080，新增12个图标排在里面" transform="translate(-1017.000000, -605.000000)">
            <g id="员工子女营养关怀补贴" transform="translate(1017.000000, 605.000000)">
                <g id="编组-9" fill="url(#linearGradient-1)">
                    <ellipse id="椭圆形备份-10" cx="24.7235059" cy="24.9192432" rx="24.7235059" ry="24.9192432"></ellipse>
                </g>
                <g id="naiping" transform="translate(15.000000, 10.000000)" fill="#FFFFFF" fill-rule="nonzero">
                    <path d="M14.8714586,30 L5.12854145,30 C3.68048269,30 2.5,28.8556338 2.5,27.4518779 L2.5,16.2981221 C2.5,14.8943662 3.68048269,13.75 5.12854145,13.75 L14.8714586,13.75 C16.3195173,13.75 17.5,14.8943662 17.5,16.2981221 L17.5,27.4518779 C17.5,28.8556338 16.3195173,30 14.8714586,30 L14.8714586,30 Z M5.12854145,15.1575704 C4.47927597,15.1575704 3.9519937,15.6687207 3.9519937,16.2981221 L3.9519937,27.4518779 C3.9519937,28.0812793 4.47927597,28.5924296 5.12854145,28.5924296 L14.8714586,28.5924296 C15.520724,28.5924296 16.0480063,28.0812793 16.0480063,27.4518779 L16.0480063,16.2981221 C16.0480063,15.6687207 15.520724,15.1575704 14.8714586,15.1575704 L5.12854145,15.1575704 Z" id="形状"></path>
                    <path d="M10,19.5165189 L6.86703882,19.5165189 C6.46608268,19.5165189 6.13981445,19.1821112 6.13981445,18.7711523 C6.13981445,18.3601934 6.46608268,18.0257857 6.86703882,18.0257857 L10,18.0257857 C10.4009561,18.0257857 10.7272244,18.3601934 10.7272244,18.7711523 C10.7272244,19.1821112 10.4009561,19.5165189 10,19.5165189 Z M10,22.256245 L6.86703882,22.256245 C6.46608268,22.256245 6.13981445,21.9218372 6.13981445,21.5108783 C6.13981445,21.0999194 6.46608268,20.7655117 6.86703882,20.7655117 L10,20.7655117 C10.4009561,20.7655117 10.7272244,21.0999194 10.7272244,21.5108783 C10.7272244,21.9218372 10.4009561,22.256245 10,22.256245 Z M10,25 L6.86703882,25 C6.46608268,25 6.13981445,24.6655923 6.13981445,24.2546334 C6.13981445,23.8436745 6.46608268,23.5092667 6.86703882,23.5092667 L10,23.5092667 C10.4009561,23.5092667 10.7272244,23.8436745 10.7272244,24.2546334 C10.7272244,24.6655923 10.4009561,25 10,25 Z M16.7769449,10.1853344 L3.22698605,10.1853344 C3.00685327,10.1853344 2.79458238,10.0805802 2.65699939,9.90330379 C2.5194164,9.7260274 2.46831415,9.49234488 2.5194164,9.2707494 C3.16016003,6.47864625 5.23962862,4.26672039 7.9008767,3.49315068 L7.9008767,2.15149073 C7.9008767,0.966962127 8.84037196,0 10,0 C11.159628,0 12.0991233,0.962933118 12.0991233,2.15149073 L12.0991233,3.49315068 C14.7603714,4.26672039 16.8437709,6.47864625 17.4805836,9.2707494 C17.5316859,9.49234488 17.4805836,9.7260274 17.3430006,9.90330379 C17.2054176,10.0805802 16.9970777,10.1853344 16.7769449,10.1853344 L16.7769449,10.1853344 Z M4.21365262,8.69460113 L15.7863474,8.69460113 C15.0119517,6.71635778 13.3059227,5.23368251 11.230385,4.80660757 C10.892324,4.73811442 10.6486055,4.43190975 10.6486055,4.07735697 L10.6486055,2.15149073 C10.6486055,1.78485093 10.3577158,1.49073328 10.0039309,1.49073328 C9.64621517,1.49073328 9.35925637,1.78887994 9.35925637,2.15149073 L9.35925637,4.07735697 C9.35925637,4.43190975 9.11553793,4.73811442 8.77747688,4.80660757 C6.69800829,5.23368251 4.9880483,6.71635778 4.21365262,8.69460113 L4.21365262,8.69460113 Z" id="形状"></path>
                    <path d="M17.4313409,13.75 L2.56865913,13.75 C1.15105008,13.75 0,12.7196312 0,11.4506508 L0,11.0493492 C0,9.78036876 1.15105008,8.75 2.56865913,8.75 L17.4313409,8.75 C18.8489499,8.75 20,9.78036876 20,11.0493492 L20,11.4506508 C20,12.7196312 18.8489499,13.75 17.4313409,13.75 Z M2.56865913,10.0876717 C1.97495961,10.0876717 1.49030695,10.5215112 1.49030695,11.0529646 L1.49030695,11.4542661 C1.49030695,11.9857195 1.97495961,12.4195589 2.56865913,12.4195589 L17.4313409,12.4195589 C18.0250404,12.4195589 18.5096931,11.9857195 18.5096931,11.4542661 L18.5096931,11.0529646 C18.5096931,10.5215112 18.0250404,10.0876717 17.4313409,10.0876717 L2.56865913,10.0876717 Z" id="形状"></path>
                </g>
            </g>
        </g>
    </g>
</svg>