<?xml version="1.0" encoding="UTF-8"?>
<svg width="50px" height="50px" viewBox="0 0 50 50" version="1.1" xmlns="http://www.w3.org/2000/svg" xmlns:xlink="http://www.w3.org/1999/xlink">
    <!-- Generator: Sketch 63 (92445) - https://sketch.com -->
    <title>团队活动经费</title>
    <desc>Created with Sketch.</desc>
    <defs>
        <linearGradient x1="29.4830715%" y1="0%" x2="61.4965112%" y2="99.8099662%" id="linearGradient-1">
            <stop stop-color="#FFCDCD" offset="0%"></stop>
            <stop stop-color="#FF5454" offset="100%"></stop>
        </linearGradient>
    </defs>
    <g id="页面-1" stroke="none" stroke-width="1" fill="none" fill-rule="evenodd">
        <g id="弹性福利PC1920*1080，新增12个图标排在里面" transform="translate(-1133.000000, -606.000000)">
            <g id="团队活动经费" transform="translate(1133.000000, 606.000000)">
                <g id="编组-10" fill="url(#linearGradient-1)">
                    <ellipse id="椭圆形备份-8-copy" cx="24.7235059" cy="24.9192432" rx="24.7235059" ry="24.9192432"></ellipse>
                </g>
                <g id="shouye-wode-shetuanguanli-jiyibi-sheyoujucan" transform="translate(15.000000, 12.500000)" fill="#FFFFFF" fill-rule="nonzero">
                    <path d="M7.93592574,0 L7.88416697,0 C7.43479812,0.00059187881 7.07065077,0.389811759 7.07009702,0.870120866 L7.07009702,9.4201326 C7.07245215,10.2466974 6.74740013,11.0357141 6.17537385,11.5919435 C6.05853973,11.6915778 5.93517296,11.7874522 5.80853986,11.8768813 C5.50577619,12.0917259 5.33567577,12.4749551 5.36457023,12.8791316 C5.36632902,12.9016903 5.36708279,12.9258603 5.36708279,12.9505675 L5.36708279,24.997176 C5.36708279,25.4268653 5.08316333,25.7972038 4.70678161,25.8600459 C4.47955825,25.8983745 4.24800825,25.82869 4.07287581,25.6692732 C3.89774336,25.5098565 3.79650772,25.2766182 3.79572678,25.0307455 L3.79572678,12.895245 C3.79572678,12.8807429 3.79572678,12.8662409 3.79748557,12.8509332 C3.82583181,12.5507284 3.6625768,12.2674207 3.39899331,12.159402 C3.19254803,12.0732344 2.99347828,11.9681042 2.80401873,11.8451917 C2.0786422,11.3258047 1.62839117,10.4183546 1.62839117,9.47518655 L1.62839117,0.870120866 C1.62058955,0.395451234 1.25835676,0.0150196788 0.814195588,0.0150196788 C0.370034413,0.0150196788 0.00780162182,0.395451234 0,0.870120866 L0,9.4201326 C0,10.294953 0.23241936,11.1517878 0.670351438,11.8908462 C1.06741502,12.5625735 1.61829875,13.1148751 2.27085316,13.4954672 L2.27085316,24.9724689 C2.27085316,26.2548229 3.14346579,27.3338802 4.3005004,27.4823916 C4.95702747,27.5665111 5.61588521,27.3466538 6.11102125,26.8782305 C6.60615729,26.4098072 6.89034356,25.737498 6.89195641,25.0307455 L6.89195641,13.2575268 C7.44374928,12.8521378 7.89778461,12.3127248 8.21683012,11.6835211 C8.56777905,10.9881445 8.75102475,10.2102319 8.75,9.4201326 L8.75,0.870120866 C8.74944194,0.389811759 8.38529459,0.00059187881 7.93592574,0 Z" id="路径"></path>
                    <path d="M5.96072384,7.14658917 C6.39647348,7.14599736 6.74957547,6.78140964 6.75014863,6.3314859 L6.75014863,0.815103275 C6.75014863,0.364934167 6.39671111,0 5.96072384,0 C5.52473657,0 5.17129905,0.364934167 5.17129905,0.815103275 L5.17129905,6.3314859 C5.17187222,6.78140964 5.5249742,7.14599736 5.96072384,7.14658917 Z M18.9855826,0.0550563991 L18.5158294,0.0550563991 C16.7421596,0.0550563991 15.0701917,0.773206698 13.8078924,2.0768348 C12.545593,3.38046291 11.8498065,5.1070853 11.8498065,6.93791199 L11.8498065,14.6611162 C11.8494793,15.8394594 12.1433151,16.9979977 12.7029578,18.0249279 C13.2504686,19.0270281 14.0359224,19.8688077 14.9853968,20.4710435 C15.1277559,20.5590593 15.2150928,20.7176092 15.2155916,20.888935 L15.2155916,24.9768055 C15.2155916,26.1998632 16.0338882,27.2435177 17.161192,27.4581034 C17.3070339,27.48601 17.4550489,27.5 17.603374,27.5 C18.9248467,27.4997077 19.9968455,26.3952415 20,25.0307876 L20,1.10112798 C19.9992824,0.523181451 19.5453224,0.0550563991 18.9855826,0.0550563991 L18.9855826,0.0550563991 Z M16.740599,25.0017823 L16.740599,20.9214317 C16.7422837,20.1770672 16.3689951,19.4853464 15.7550535,19.0951706 C15.6900268,19.053274 15.625,19.0097661 15.5604935,18.9657209 C14.1925705,17.9872785 13.3761665,16.3785294 13.3755945,14.6603105 L13.3755945,6.93818056 C13.3755945,4.0744421 15.6065324,1.73843937 18.3696492,1.68606865 L18.3696492,25.0318618 C18.3687614,25.2906522 18.2528415,25.5346924 18.055204,25.6938473 C17.8575666,25.8530022 17.600098,25.9096469 17.3567925,25.8475023 C16.9999257,25.7604863 16.740599,25.4049025 16.740599,25.0017823 L16.740599,25.0017823 Z M3.28942479,7.14658917 C3.72523377,7.14614503 4.07841944,6.78147091 4.07884958,6.3314859 L4.07884958,0.815103275 C4.07884958,0.364934176 3.72541206,2.42919707e-08 3.28942479,2.42919707e-08 C2.85343753,2.42919707e-08 2.5,0.364934176 2.5,0.815103275 L2.5,6.3314859 C2.50057317,6.78140964 2.85367515,7.14599736 3.28942479,7.14658917 L3.28942479,7.14658917 Z" id="形状"></path>
                </g>
            </g>
        </g>
    </g>
</svg>