<?xml version="1.0" encoding="UTF-8"?>
<svg width="50px" height="50px" viewBox="0 0 50 50" version="1.1" xmlns="http://www.w3.org/2000/svg" xmlns:xlink="http://www.w3.org/1999/xlink">
    <!-- Generator: Sketch 63 (92445) - https://sketch.com -->
    <title>外派员工关怀</title>
    <desc>Created with Sketch.</desc>
    <defs>
        <linearGradient x1="29.4830715%" y1="0%" x2="61.4965112%" y2="99.8099662%" id="linearGradient-1">
            <stop stop-color="#FBE4AD" offset="0%"></stop>
            <stop stop-color="#FBD473" offset="100%"></stop>
        </linearGradient>
    </defs>
    <g id="页面-1" stroke="none" stroke-width="1" fill="none" fill-rule="evenodd">
        <g id="弹性福利PC1920*1080，新增12个图标排在里面" transform="translate(-1249.000000, -605.000000)">
            <g id="外派员工关怀" transform="translate(1249.000000, 605.000000)">
                <g id="编组-11" fill="url(#linearGradient-1)">
                    <ellipse id="椭圆形备份-11" cx="24.7235059" cy="24.9192432" rx="24.7235059" ry="24.9192432"></ellipse>
                </g>
                <g id="icon3" transform="translate(12.500000, 12.500000)" fill="#FFFFFF" fill-rule="nonzero">
                    <path d="M24.7782824,11.9432856 C24.7782824,11.9432856 16.9634642,4.13058398 16.9489553,4.11685135 L13.0594538,0.228801204 C12.9069104,0.0762860958 12.7069844,0 12.5071156,0 C12.3071897,0 12.1073209,0.0762575541 11.9547203,0.228801204 L8.59393725,3.91397372 L8.59393725,2.35202152 C8.59393725,1.92037125 8.24452388,1.57105969 7.8126839,1.57105969 L4.68769911,1.57105972 C4.25583059,1.57105972 3.90641722,1.92034271 3.90641722,2.35202155 L3.90641722,8.59974466 L0.221382835,12.5045823 C-0.083789794,12.8103834 -0.0685097371,13.2885705 0.236662892,13.5936578 C0.542578105,13.8994874 0.989669555,13.9452248 1.29564187,13.6393952 L2.34391053,12.5045823 L2.34391053,23.4381049 C2.34391053,24.3006632 3.0435084,25 3.90638864,25 L21.0940191,25 C21.9569279,25 22.6565544,24.3006632 22.6565544,23.4381049 L22.6565544,12.0309632 L23.6857444,13.0597978 C23.9909456,13.3648565 24.4570872,13.3374198 24.7630595,13.0323611 C25.0682321,12.7272738 25.0842547,12.2483158 24.7782824,11.9432856 Z M7.03143056,3.13301189 L7.03143056,5.47592591 L5.46892388,7.03784957 L5.46892388,3.13301189 L7.03143056,3.13301189 Z M14.0627391,23.4381049 L10.9377258,23.4381049 L10.9377258,17.1903532 L14.0627391,17.1903532 L14.0627391,23.4381049 Z M21.0940477,22.657086 C21.0940477,23.0887934 20.7446058,23.4381049 20.3127658,23.4381049 L15.6252458,23.4381049 L15.6252458,16.4093914 C15.6252458,15.9777411 15.2758325,15.6284296 14.8439925,15.6284296 L10.1564725,15.6284296 C9.72463251,15.6284296 9.37521914,15.9777411 9.37521914,16.4093914 L9.37521914,23.4381049 L4.68769911,23.4381049 C4.25583059,23.4381049 3.90641722,23.0888219 3.90641722,22.6571145 L3.90641722,10.9426301 L12.5071442,1.88605392 L21.0940477,10.4690111 L21.0940477,22.657086 L21.0940477,22.657086 Z" id="形状"></path>
                </g>
            </g>
        </g>
    </g>
</svg>