<?xml version="1.0" encoding="UTF-8"?>
<svg width="50px" height="50px" viewBox="0 0 50 50" version="1.1" xmlns="http://www.w3.org/2000/svg" xmlns:xlink="http://www.w3.org/1999/xlink">
    <!-- Generator: Sketch 63 (92445) - https://sketch.com -->
    <title>女员工 生育费</title>
    <desc>Created with Sketch.</desc>
    <defs>
        <linearGradient x1="29.4830715%" y1="0%" x2="61.4965112%" y2="99.8099662%" id="linearGradient-1">
            <stop stop-color="#FFCDCD" offset="0%"></stop>
            <stop stop-color="#FF8383" offset="100%"></stop>
        </linearGradient>
    </defs>
    <g id="页面-1" stroke="none" stroke-width="1" fill="none" fill-rule="evenodd">
        <g id="弹性福利PC1920*1080，新增12个图标排在里面" transform="translate(-1482.000000, -498.000000)">
            <g id="女员工-生育费" transform="translate(1482.000000, 498.000000)">
                <g id="编组-13" fill="url(#linearGradient-1)">
                    <ellipse id="椭圆形备份-9" cx="24.7235059" cy="24.9192432" rx="24.7235059" ry="24.9192432"></ellipse>
                </g>
                <g id="huaiyun" transform="translate(15.000000, 12.000000)" fill="#FFFFFF" fill-rule="nonzero">
                    <path d="M18.8001314,8.04639259 C18.1654953,5.98154188 17.2219881,3.20611467 16.6498372,2.18080408 C15.6832926,0.446165701 14.5626254,0.187798004 13.9801503,0.187798004 L13.9589332,0.189046718 C13.8375748,0.147548748 13.7150218,0.120280313 13.6070023,0.114704659 L11.1836728,0.0013330175 C10.9496714,-0.009738156 10.7175086,0.0483395744 10.515021,0.168602652 C10.0897118,0.421365655 6.32122902,2.68879847 4.9633056,4.44576851 C4.20853396,5.42211788 4.07443387,6.61344939 4.59502095,7.71432171 C4.72243737,7.98506039 4.88566122,8.23843323 5.07556288,8.47014233 C3.4282506,9.29409048 1.56615065,10.7270337 0.640276962,13.1728874 C-1.55674615,18.9796412 2.41318542,23.9431933 4.81953551,25.7565298 C5.0291725,25.9144968 5.28281968,26 5.54336316,26 L14.4079055,26 C14.7849742,25.999677 15.1406917,25.8212798 15.3714352,25.5167766 C15.6535716,25.1444565 18.1248244,21.7909907 18.0641594,18.6723703 C18.0442996,17.5542913 17.837029,16.4479454 17.4513376,15.4013197 C18.5938477,14.8455838 19.4438972,14.3097111 19.7557546,13.8450732 C20.0846198,13.3531669 20.3224732,12.9981836 18.8001314,8.04639259 Z M16.844005,18.6965025 C16.8979863,21.4638856 14.4073082,24.7504436 14.4073082,24.7504436 L5.54276589,24.7504436 C5.54276589,24.7504436 -0.662413717,20.0730793 1.77792356,13.6239056 C3.36152763,9.43969637 8.23366984,8.68262704 8.3744536,8.66157313 C8.27493797,8.67644154 8.1742278,8.68326591 8.0741149,8.68326591 C6.43468083,8.68326591 4.68847862,6.81417295 5.92015171,5.22014561 C7.17309879,3.59829807 11.1272455,1.24842107 11.1272455,1.24842107 C11.1272455,1.24842107 11.6611715,1.26950401 12.2491073,1.29613357 C11.6623945,2.24338499 11.6708984,3.38389673 11.6763591,3.55302492 L11.6781793,3.61435712 L11.6860575,3.67507948 C11.9566752,5.80683804 13.7696288,9.3678227 14.8453875,11.3329215 C13.7720463,11.8006666 12.0124768,12.6617858 9.07160344,14.2477691 C8.65596425,14.0247429 8.29009711,13.9125909 7.97764247,13.9119811 C7.90602761,13.9119811 7.83566417,13.9175568 7.76649526,13.9274593 C7.72764463,13.9268495 7.6845847,13.924991 7.6366329,13.9231324 C7.50497875,13.9175568 7.35085607,13.9113713 7.18766067,13.9113713 C5.91105054,13.9113713 5.1083271,14.3425552 4.80193043,15.1919132 C4.53373024,15.9340851 4.59078322,17.041172 6.38371426,18.0968292 L6.43954427,18.1296443 C6.76960399,18.3526704 7.21496419,18.4530322 7.91089105,18.4530322 C8.72757911,18.4530322 9.70808827,18.3099238 9.74932796,18.3037383 L9.84884359,18.2888699 L9.94531603,18.2578843 C12.0592056,17.5690006 14.4327915,16.734511 16.3331164,15.9111727 C16.6146554,16.7078524 16.8233567,17.6197913 16.844005,18.6965025 Z M18.7491649,13.137575 C17.9440239,14.3394479 9.5751827,17.0671917 9.5751827,17.0671917 C9.5751827,17.0671917 8.64930902,17.2034758 7.91089105,17.2034758 C7.55111032,17.2034758 7.2361813,17.1718804 7.09360574,17.0752357 C6.91584846,16.9550397 5.68596716,16.3472934 5.94685797,15.6243169 C6.09005923,15.2272257 6.68465023,15.1609277 7.18766067,15.1609277 C7.44067327,15.1609277 7.67002283,15.1776547 7.80773495,15.1776547 C7.84495158,15.1792032 7.88221764,15.176289 7.91876926,15.1689717 C7.93796689,15.1637486 7.95777702,15.1612471 7.97764247,15.1615375 C8.29737804,15.1615375 9.02669484,15.6850392 9.02669484,15.6850392 C9.02669484,15.6850392 15.7591452,12.0274099 16.5879492,12.0274099 C16.6188932,12.0274099 16.6425562,12.0329855 16.6559236,12.043527 C16.6559236,12.043527 13.2405378,6.22562196 12.8959162,3.5133855 C12.8959162,3.5133855 12.8491874,1.99680748 13.7829677,1.46404208 C13.7829677,1.46404208 13.8551799,1.43616381 13.9801503,1.43616381 C14.2902159,1.43616381 14.926075,1.60776038 15.5904607,2.79909189 C16.5224208,4.47114936 19.0610507,12.6717174 18.7491649,13.137575 Z" id="形状"></path>
                </g>
            </g>
        </g>
    </g>
</svg>