<?xml version="1.0" encoding="UTF-8"?>
<svg width="50px" height="50px" viewBox="0 0 50 50" version="1.1" xmlns="http://www.w3.org/2000/svg" xmlns:xlink="http://www.w3.org/1999/xlink">
    <!-- Generator: Sketch 63 (92445) - https://sketch.com -->
    <title>工作餐</title>
    <desc>Created with Sketch.</desc>
    <defs>
        <linearGradient x1="25.3714086%" y1="12.8993314%" x2="66.3459898%" y2="85.7932218%" id="linearGradient-1">
            <stop stop-color="#FFA26D" offset="0%"></stop>
            <stop stop-color="#FF6F42" offset="100%"></stop>
        </linearGradient>
    </defs>
    <g id="页面-1" stroke="none" stroke-width="1" fill="none" fill-rule="evenodd">
        <g id="弹性福利PC1920*1080，新增12个图标排在里面" transform="translate(-1017.000000, -498.000000)" fill-rule="nonzero">
            <g id="工作餐" transform="translate(1017.000000, 498.000000)">
                <path d="M25,49.9999076 C18.36605,50.0179911 12.0005785,47.3812402 7.32262938,42.6773682 C2.61899322,37.9992611 -0.017715021,31.6338931 9.10054326e-05,24.9999986 C-0.017854452,18.3660765 2.61887516,12.000657 7.32262938,7.32262896 C12.0006576,2.61887501 18.3660776,-0.0178544508 25,9.10055664e-05 C31.6338949,-0.0177150199 37.9992632,2.61899308 42.6773706,7.32262896 C47.3811248,12.000657 50.0178545,18.3660765 49.999909,24.9999986 C50.017715,31.6338931 47.3810068,37.9992611 42.6773706,42.6773682 C37.9993424,47.3811222 31.6339224,50.0178516 25,49.9999076 Z" id="形状" fill="url(#linearGradient-1)"></path>
                <g transform="translate(13.000000, 14.000000)" fill="#FFFFFF">
                    <path d="M2.61160714,18.591998 L21.4419643,18.591998 C22.8524732,18.591998 24,17.4601979 24,16.0690198 C24,14.9683673 23.2816339,14.0302157 22.2830625,13.6863245 C22.207875,12.5575362 21.9447321,11.461137 21.497625,10.418579 C20.9798839,9.21124809 20.2388304,8.1271336 19.2950893,7.19632637 C18.351375,6.26554556 17.2521696,5.53467444 16.0280625,5.02400252 C15.5568584,4.82726487 15.0713418,4.66570115 14.5756071,4.54067387 C14.8737589,4.08175602 15.0467946,3.53655496 15.0467946,2.95222793 C15.0467946,1.32436541 13.7040268,0 12.0535446,0 C10.4030625,0 9.06032143,1.32431258 9.06032143,2.95217509 C9.06032143,3.53172036 9.230625,4.07269444 9.52427679,4.52920819 C9.01247476,4.65571224 8.51137753,4.82112972 8.02548214,5.0239761 C6.801375,5.53464802 5.70219643,6.26551914 4.75845536,7.19629995 C3.81474107,8.12710719 3.07371429,9.21122167 2.55594643,10.4185526 C2.10883929,11.461137 1.84566964,12.5575362 1.77048214,13.6863245 C0.7719375,14.0302157 0.0535714286,14.9683673 0.0535714286,16.0690198 C0.0535714286,17.4601979 1.20109821,18.591998 2.61160714,18.591998 Z M12.0535714,1.67742385 C12.7662321,1.67742385 13.3460357,2.24928129 13.3460357,2.95217509 C13.3460357,3.65506889 12.7662321,4.22692634 12.0535714,4.22692634 C11.3409107,4.22692634 10.7611071,3.65506889 10.7611071,2.95217509 C10.7611071,2.24928129 11.3409107,1.67742385 12.0535714,1.67742385 Z M2.61160714,15.2104147 C3.07759821,15.2104147 3.45535714,14.8378065 3.45535714,14.3782282 C3.45535714,14.3459182 3.45329464,14.3141366 3.44967857,14.2828041 C3.49465179,9.65537151 7.32463393,5.90440302 12.0267857,5.90440302 C16.7289375,5.90440302 20.5589196,9.65537151 20.6039196,14.2828041 C20.6001767,14.314479 20.5982718,14.3463389 20.5982143,14.3782282 C20.5982143,14.8378065 20.976,15.2104147 21.4419643,15.2104147 C21.9219911,15.2104147 22.3125,15.5955718 22.3125,16.0690198 C22.3125,16.5424679 21.9219911,16.927625 21.4419643,16.927625 L2.61160714,16.927625 C2.13160714,16.927625 1.74107143,16.5424679 1.74107143,16.0690198 C1.74107143,15.5955718 2.13160714,15.2104147 2.61160714,15.2104147 Z M23.1428571,20.3092083 L0.857142857,20.3092083 C0.383758929,20.3092083 0,20.6877079 0,21.1546042 C0,21.6215004 0.383758929,22 0.857142857,22 L23.1428571,22 C23.6162411,22 24,21.6215004 24,21.1546042 C24,20.6877079 23.6162411,20.3092083 23.1428571,20.3092083 Z" id="形状"></path>
                    <path d="M5.22224429,15.8888889 C5.45543694,15.8888889 5.64448858,15.6642737 5.64448858,15.387148 C5.64448858,11.4996 8.30613208,8.33681513 11.5777557,8.33681513 C11.8109732,8.33681513 12,8.11217044 12,7.83507423 C12,7.55797803 11.8109732,7.33333333 11.5777557,7.33333333 C9.76735353,7.33333333 8.06531778,8.17108251 6.78515392,9.69223537 C5.5050149,11.2134177 4.8,13.2358985 4.8,15.387148 C4.8,15.6642737 4.98905164,15.8888889 5.22224429,15.8888889 Z" id="路径"></path>
                </g>
            </g>
        </g>
    </g>
</svg>