<?xml version="1.0" encoding="UTF-8"?>
<svg width="50px" height="50px" viewBox="0 0 50 50" version="1.1" xmlns="http://www.w3.org/2000/svg" xmlns:xlink="http://www.w3.org/1999/xlink">
    <!-- Generator: Sketch 63 (92445) - https://sketch.com -->
    <title>探亲路费</title>
    <desc>Created with Sketch.</desc>
    <defs>
        <linearGradient x1="29.4830715%" y1="0%" x2="61.5574634%" y2="100%" id="linearGradient-1">
            <stop stop-color="#FFCAAC" offset="0%"></stop>
            <stop stop-color="#FFA26D" offset="100%"></stop>
        </linearGradient>
    </defs>
    <g id="页面-1" stroke="none" stroke-width="1" fill="none" fill-rule="evenodd">
        <g id="弹性福利PC1920*1080，新增12个图标排在里面" transform="translate(-1367.000000, -605.000000)">
            <g id="探亲路费" transform="translate(1367.000000, 605.000000)">
                <g id="编组-12" fill="url(#linearGradient-1)">
                    <ellipse id="椭圆形备份-6-copy" cx="24.7235059" cy="24.9192432" rx="24.7235059" ry="24.9192432"></ellipse>
                </g>
                <g id="feijihuochepiao-3" transform="translate(10.000000, 15.000000)" fill="#FFFFFF" fill-rule="nonzero">
                    <path d="M27.7812337,17.6828834 C27.7820704,17.5065514 27.7150132,17.3371136 27.5948418,17.2119346 C27.4746703,17.0867556 27.3112548,17.016117 27.1406317,17.0155959 L20.4042251,16.9788081 C20.2336033,16.9779434 20.0696526,17.0472448 19.9485274,17.1714382 C19.8274022,17.2956315 19.7590511,17.4645161 19.758539,17.6408496 L19.758539,17.9692391 C19.7577023,18.1455712 19.8247594,18.3150089 19.9449309,18.4401879 C20.0651024,18.5653669 20.2285179,18.6360056 20.399141,18.6365266 L27.1355476,18.6733144 C27.3061694,18.6741791 27.4701201,18.6048777 27.5912453,18.4806844 C27.7123705,18.3564911 27.7807216,18.1876064 27.7812337,18.011273 L27.7812337,17.6828834 Z M26.8406709,13.7001751 L24.2910046,10.0406021 C24.2910046,10.0406021 23.9046144,9.39958576 23.0149004,9.03704371 C20.8999229,8.17534958 19.1662515,9.34704344 19.1662515,9.34704344 C19.1662515,9.34704344 18.7213944,9.58348391 17.9765766,9.97755134 L19.3645306,14.6485641 L26.1975347,14.6853646 C27.5499001,14.690598 26.8381289,13.7001751 26.8381289,13.7001751 L26.8406709,13.7001751 Z M17.5469718,12.6545829 C17.3486927,11.2937366 16.4666047,10.9364488 15.4675829,11.3094993 C13.4847915,12.3603458 11.0037603,13.673904 8.776933,14.8561063 C8.64983098,15.2396653 8.59899018,15.7650885 8.87353054,16.2537322 C9.10231416,16.6688165 9.31838758,16.8264435 9.4276953,16.8842401 L15.6963665,14.9191571 C16.9978911,14.5040727 17.7706714,14.2150899 17.5469718,12.6545829 L17.5469718,12.6545829 Z M27.4507606,20 L3.08276287,19.86339 L3.08784696,18.87034 L7.85417241,17.3728837 C7.95585402,17.2152567 8.00669482,16.9577993 7.91009728,16.5742404 C7.76265894,15.9910205 7.49828677,15.7493258 7.28475539,15.6442412 C5.72394268,16.4744099 4.41733401,17.1679686 3.69539458,17.5489005 C3.42824714,17.6891338 3.21497713,17.9188023 3.09038901,18.2004253 L3.10055716,16.5453421 L16.6064169,9.00289119 C16.6064169,9.00289119 20.6380927,6.34424951 23.6682047,7.38984181 C26.6983167,8.43543411 29.7131764,16.0383086 29.7131764,16.0383086 C29.7131764,16.0383086 31.1875597,19.9133052 27.4507606,20 Z M23.3428236,2.9710322 C22.2751667,1.7310333 20.9329694,1.46044034 20.0076668,1.44205051 C19.4376448,1.43724712 18.8752998,1.57802631 18.3705929,1.85188065 L13.7135752,4.40543768 L13.6500241,4.41069192 C13.3373959,4.44610553 13.0220141,4.37705111 12.7501419,4.21365819 C11.2706745,3.34670982 6.33911642,0.483153077 5.17994607,0.0943398565 C4.71729476,-0.0632871153 4.34615688,-0.0054905531 4.06653245,0.136373723 C3.81367213,0.269858304 3.63381232,0.515578488 3.57831796,0.803360725 C3.5228236,1.09114296 3.59779587,1.38934784 3.78182394,1.61281307 L8.98283826,6.987893 L5.60700884,8.85051846 C5.14144365,9.10636892 4.59280515,9.14645984 4.09703693,8.96085735 L1.75581787,8.0834005 C1.4890489,7.98322285 1.20136761,7.95784279 0.922028682,8.00984124 L0.388200223,8.10967167 C-0.0236102856,8.18848516 -0.140544149,8.74543381 0.197547217,9.00814543 L4.01569165,11.9505157 C4.62401671,12.4235443 5.43480674,12.5123845 6.12558504,12.1817019 L23.1343763,4.05340411 C23.3248761,3.96062957 23.4615083,3.77997668 23.5026159,3.56652364 C23.5437235,3.35307061 23.4844339,3.13211853 23.3428236,2.9710322 L23.3428236,2.9710322 Z" id="形状"></path>
                </g>
            </g>
        </g>
    </g>
</svg>